<svg id="visual" viewBox="0 0 1920 1080" width="1920" height="1080" xmlns="http://www.w3.org/2000/svg" xmlns:xlink="http://www.w3.org/1999/xlink" version="1.1"><rect x="0" y="0" width="1920" height="1080" fill="#f8d6b3"></rect><defs><linearGradient id="grad1_0" x1="43.8%" y1="0%" x2="100%" y2="100%"><stop offset="14.444444444444446%" stop-color="#f8d6b3" stop-opacity="1"></stop><stop offset="85.55555555555554%" stop-color="#f8d6b3" stop-opacity="1"></stop></linearGradient></defs><defs><linearGradient id="grad2_0" x1="0%" y1="0%" x2="56.3%" y2="100%"><stop offset="14.444444444444446%" stop-color="#f8d6b3" stop-opacity="1"></stop><stop offset="85.55555555555554%" stop-color="#f8d6b3" stop-opacity="1"></stop></linearGradient></defs><g transform="translate(1920, 0)"><path d="M0 916C-67 816.6 -134 717.3 -228.4 702.8C-322.7 688.4 -444.3 758.9 -539.6 742.7C-634.8 726.4 -703.7 623.3 -716 520.2C-728.3 417 -684.1 313.8 -699 227.1C-713.9 140.4 -788 70.2 -862 0L0 0Z" fill="#87ceeb"></path></g><g transform="translate(0, 1080)"><path d="M0 -863C101.6 -886.5 203.3 -910 282.8 -870.2C362.2 -830.4 419.5 -727.4 474.3 -652.9C529.2 -578.4 581.7 -532.4 659.3 -479C737 -425.6 839.8 -364.8 873.1 -283.7C906.4 -202.6 870.2 -101.3 834 0L0 0Z" fill="#87ceeb"></path></g></svg>